<?xml version="1.0" standalone="no"?>
<!DOCTYPE svg PUBLIC "-//W3C//DTD SVG 20010904//EN"
 "http://www.w3.org/TR/2001/REC-SVG-20010904/DTD/svg10.dtd">
<svg version="1.0" xmlns="http://www.w3.org/2000/svg"
 width="976.000000pt" height="976.000000pt" viewBox="0 0 976.000000 976.000000"
 preserveAspectRatio="xMidYMid meet">
<metadata>
Created by potrace 1.11, written by Peter Selinger 2001-2013
</metadata>
<g transform="translate(0.000000,976.000000) scale(0.100000,-0.100000)"
fill="#000000" stroke="none">
<path d="M4688 9755 c-2 -2 -32 -6 -68 -9 -36 -3 -81 -8 -100 -11 -19 -3 -56
-7 -82 -9 -26 -2 -51 -7 -55 -9 -5 -3 -27 -8 -49 -11 -23 -4 -55 -10 -72 -15
-17 -5 -33 -7 -36 -3 -3 3 -6 1 -6 -4 0 -5 -11 -10 -24 -10 -32 -2 -150 -39
-276 -86 -58 -22 -110 -40 -116 -42 -7 -1 -19 -8 -28 -15 -9 -7 -16 -11 -16
-7 0 3 -20 -6 -44 -19 -25 -14 -51 -25 -60 -25 -8 0 -16 -3 -18 -7 -1 -5 -25
-19 -53 -32 -80 -39 -279 -163 -347 -215 -14 -12 -41 -32 -59 -46 -154 -115
-348 -307 -485 -479 -11 -13 -24 -28 -30 -35 -5 -6 -35 -47 -64 -91 -30 -44
-58 -81 -62 -83 -5 -2 -8 -8 -8 -14 0 -5 -8 -22 -19 -36 -74 -107 -247 -471
-266 -561 -2 -9 -11 -36 -20 -61 -27 -75 -66 -230 -60 -240 3 -5 1 -11 -4 -14
-9 -6 -21 -64 -35 -168 -3 -20 -8 -56 -11 -80 -4 -24 -9 -65 -10 -93 -2 -27
-5 -52 -6 -55 -4 -12 -4 -420 1 -420 3 0 5 -15 6 -33 3 -76 19 -198 39 -287 7
-27 13 -57 19 -92 10 -56 80 -284 103 -338 3 -8 7 -19 9 -25 8 -34 80 -192
126 -279 21 -39 45 -88 54 -108 10 -21 21 -38 26 -38 4 0 8 -7 8 -15 0 -8 5
-15 10 -15 6 0 10 -5 10 -10 0 -14 99 -161 119 -177 8 -7 11 -13 7 -13 -8 0
74 -103 87 -108 4 -2 7 -7 7 -12 0 -11 59 -77 176 -194 123 -123 154 -151 269
-247 50 -41 95 -78 101 -84 6 -5 33 -29 60 -52 27 -23 59 -50 72 -61 13 -11
41 -35 64 -54 23 -18 47 -38 53 -45 11 -10 59 -52 214 -183 29 -24 68 -58 87
-75 33 -31 33 -31 12 -45 -11 -8 -30 -24 -42 -35 -12 -11 -46 -40 -76 -65 -30
-25 -67 -56 -81 -70 -14 -14 -41 -36 -59 -50 -38 -29 -61 -49 -112 -96 -21
-19 -38 -33 -38 -30 0 2 -12 -8 -28 -22 -15 -15 -51 -47 -81 -72 -30 -25 -59
-49 -65 -55 -6 -5 -41 -35 -76 -65 -36 -30 -70 -59 -76 -65 -6 -5 -35 -30 -65
-55 -29 -25 -61 -53 -71 -62 -10 -10 -21 -18 -24 -18 -3 0 -11 -6 -18 -12 -11
-11 -69 -61 -152 -133 -13 -11 -40 -33 -60 -50 -20 -16 -50 -42 -66 -58 -16
-15 -31 -27 -33 -27 -3 0 -13 -8 -23 -18 -10 -9 -40 -36 -68 -59 -27 -22 -103
-87 -169 -144 -155 -132 -216 -184 -299 -253 -26 -21 -60 -51 -75 -65 -16 -14
-40 -35 -52 -45 -34 -28 -159 -133 -195 -164 -27 -24 -78 -68 -154 -131 -14
-12 -36 -31 -50 -44 -14 -12 -50 -42 -80 -67 -30 -25 -61 -52 -70 -60 -8 -8
-38 -33 -65 -55 -28 -22 -62 -51 -76 -65 -14 -14 -40 -36 -58 -50 -18 -13 -43
-33 -55 -45 -12 -11 -41 -36 -65 -55 -24 -19 -55 -46 -70 -60 -14 -14 -51 -45
-81 -70 -30 -25 -60 -49 -66 -55 -6 -5 -32 -28 -59 -50 -27 -22 -56 -47 -65
-55 -9 -8 -56 -49 -105 -90 -49 -41 -103 -87 -120 -102 -16 -14 -41 -36 -55
-47 -14 -11 -32 -26 -40 -34 -8 -7 -44 -38 -79 -68 -36 -29 -72 -60 -80 -67
-9 -8 -37 -32 -63 -55 l-48 -42 33 -36 c17 -20 48 -55 67 -79 19 -23 44 -52
55 -65 19 -21 75 -86 112 -131 55 -67 105 -126 163 -193 36 -42 70 -82 75 -89
6 -7 21 -25 35 -40 14 -15 57 -66 97 -113 39 -48 78 -93 85 -100 7 -8 33 -39
58 -69 81 -99 75 -95 97 -73 10 10 38 34 62 53 24 19 57 47 73 62 16 16 33 28
38 28 6 0 10 4 10 8 0 5 30 33 66 63 69 56 92 75 134 112 14 12 55 46 90 76
36 30 70 60 75 65 6 6 32 29 59 50 26 22 62 52 80 68 17 16 44 39 59 51 15 12
38 31 51 42 12 11 44 39 72 62 27 23 60 51 74 63 14 12 45 38 70 58 24 21 55
47 68 60 12 12 25 22 27 22 3 0 13 8 23 17 10 10 42 38 71 63 29 25 63 53 75
63 61 52 109 93 120 102 6 6 54 46 106 90 98 83 154 131 176 152 7 7 15 13 18
13 3 0 18 12 34 27 15 16 50 46 77 68 27 22 59 49 70 60 12 11 41 36 66 55 24
19 53 44 65 55 11 11 40 36 64 55 24 19 48 40 54 45 6 6 43 37 81 70 39 32 77
65 85 72 8 8 26 23 40 34 24 20 90 75 140 119 14 12 47 40 74 63 27 23 57 49
66 58 9 8 25 22 36 30 19 13 127 105 164 139 9 8 38 33 65 55 28 22 59 49 71
60 12 11 32 29 46 40 39 31 129 108 155 133 13 12 26 22 28 22 2 0 18 12 34
27 16 16 49 44 73 64 42 36 96 81 192 162 27 23 59 52 72 65 13 12 26 22 29
22 3 0 16 10 29 22 25 25 117 104 148 128 11 8 33 27 49 43 16 15 34 27 38 27
5 0 11 7 15 15 8 21 16 19 57 -18 44 -39 109 -95 259 -222 170 -144 221 -187
249 -212 15 -13 31 -26 36 -31 22 -18 151 -127 161 -137 7 -5 28 -23 48 -40
21 -16 50 -41 65 -55 16 -14 51 -43 77 -66 130 -109 283 -239 315 -267 20 -18
47 -41 60 -52 13 -11 70 -59 127 -108 114 -97 117 -99 152 -128 43 -36 122
-104 134 -114 6 -6 52 -44 101 -85 50 -41 95 -80 100 -86 6 -6 69 -60 140
-119 72 -60 140 -118 152 -129 12 -12 39 -35 60 -53 21 -17 92 -77 158 -133
66 -56 140 -119 165 -140 68 -57 141 -120 156 -133 7 -7 19 -17 26 -22 17 -14
148 -125 218 -185 62 -53 599 -510 615 -522 6 -5 22 -18 36 -31 14 -12 49 -42
78 -67 30 -25 66 -56 81 -70 15 -14 41 -35 57 -47 l31 -22 16 22 c8 12 27 36
43 53 15 17 46 53 68 79 22 26 49 58 60 70 11 13 38 44 60 71 48 57 160 190
218 257 23 27 47 54 52 60 6 7 60 70 120 142 113 133 131 155 184 215 l31 35
-28 25 c-43 39 -142 124 -192 165 -25 20 -46 41 -48 46 -2 5 -8 9 -13 9 -5 0
-20 9 -32 20 -54 51 -101 91 -202 175 -59 50 -126 108 -150 130 -23 22 -45 41
-49 42 -8 3 -238 198 -283 240 -18 17 -37 33 -42 35 -4 2 -35 26 -67 54 -51
45 -164 142 -348 298 -27 22 -58 49 -70 59 -11 11 -41 35 -65 55 -25 21 -52
44 -61 52 -14 13 -163 140 -225 192 -11 9 -88 74 -171 145 -83 70 -173 147
-200 170 -98 83 -280 238 -404 343 -54 46 -81 69 -139 118 -24 20 -54 46 -66
57 -13 11 -42 36 -66 55 -23 19 -58 50 -77 68 -18 17 -36 32 -39 32 -2 0 -10
6 -17 13 -7 6 -35 31 -62 54 -27 23 -59 50 -70 60 -12 10 -72 61 -134 113 -62
52 -127 107 -144 123 -17 15 -84 71 -148 125 l-117 97 27 25 c15 14 52 45 81
70 30 25 68 58 85 74 17 15 45 37 61 47 17 10 26 19 22 19 -5 0 15 19 44 42
77 61 100 80 122 106 12 12 24 22 29 22 4 0 23 15 42 33 31 30 72 64 156 133
111 91 159 136 279 256 134 135 171 175 171 188 0 5 4 10 8 10 5 0 24 21 42
48 19 26 40 53 47 60 24 24 163 238 163 250 0 7 4 12 9 12 5 0 14 12 20 28 6
15 26 55 45 90 18 34 31 62 27 62 -3 0 -1 4 4 8 12 8 22 30 80 167 59 140 147
450 159 558 1 12 5 27 8 32 3 6 4 19 2 29 -1 11 0 24 4 30 3 6 7 22 8 36 1 14
5 63 10 110 11 107 10 411 -1 510 -4 41 -9 93 -11 115 -1 22 -4 40 -5 40 -1 0
-3 9 -4 20 -2 11 -6 34 -9 50 -4 17 -9 46 -12 65 -8 59 -66 273 -91 340 -3 8
-7 20 -8 25 -17 74 -213 493 -245 525 -13 13 -60 91 -60 100 0 5 -4 10 -10 10
-5 0 -10 4 -10 10 0 5 -9 20 -20 32 -10 13 -19 26 -20 31 0 4 -8 15 -17 26
-10 10 -29 34 -43 52 -107 143 -350 390 -479 486 -13 10 -32 26 -42 36 -11 9
-22 17 -27 17 -4 0 -19 11 -33 23 -13 13 -29 26 -34 28 -6 2 -48 29 -95 60
-85 56 -119 76 -175 103 -16 8 -34 18 -38 23 -5 4 -12 8 -15 9 -4 0 -50 21
-102 46 -52 24 -120 54 -150 65 -30 12 -64 25 -75 29 -11 4 -22 8 -25 9 -3 0
-34 11 -70 23 -36 12 -74 23 -85 25 -11 1 -24 5 -30 8 -5 3 -37 11 -70 18 -33
7 -67 16 -75 18 -8 3 -28 7 -45 9 -16 2 -41 7 -55 11 -14 3 -28 6 -32 5 -4 -1
-28 3 -55 8 -26 6 -70 12 -98 15 -63 6 -492 14 -497 10z m382 -1329 c74 -9
190 -36 270 -63 69 -22 101 -35 170 -66 35 -16 194 -109 200 -117 3 -3 26 -21
52 -38 55 -38 208 -185 265 -257 144 -178 259 -434 297 -660 16 -94 20 -142
19 -255 0 -217 -38 -399 -119 -585 -10 -22 -18 -42 -19 -45 -1 -5 -10 -22 -45
-80 -11 -19 -26 -47 -33 -62 -6 -16 -15 -28 -19 -28 -4 0 -8 -6 -8 -14 0 -8
-3 -16 -7 -18 -5 -1 -28 -30 -53 -62 -69 -91 -186 -206 -280 -274 -47 -34 -91
-66 -97 -72 -7 -6 -24 -15 -38 -20 -14 -5 -25 -15 -25 -21 0 -7 -3 -10 -6 -6
-4 3 -34 -9 -68 -26 -75 -40 -172 -78 -180 -70 -3 4 -6 0 -6 -7 0 -7 -3 -11
-6 -7 -3 3 -18 1 -33 -5 -29 -11 -55 -18 -86 -23 -11 -1 -38 -7 -60 -13 -22
-5 -47 -10 -55 -10 -8 0 -33 -3 -55 -7 -80 -15 -318 -9 -399 10 -12 3 -34 7
-51 9 -16 2 -50 9 -75 16 -25 7 -49 13 -55 15 -5 1 -17 4 -25 8 -8 3 -50 17
-92 32 -43 15 -78 32 -78 38 0 6 -3 8 -6 4 -4 -3 -25 4 -48 17 -128 72 -156
88 -166 101 -7 8 -18 15 -25 15 -8 0 -15 3 -17 8 -1 4 -25 25 -53 47 -65 52
-160 147 -210 210 -22 28 -42 52 -46 55 -3 3 -16 23 -29 45 -13 22 -27 42 -31
45 -4 3 -23 37 -44 75 -20 39 -41 75 -47 82 -5 7 -7 17 -3 23 3 5 2 10 -3 10
-5 0 -28 57 -50 128 -39 118 -49 157 -57 222 -2 14 -4 25 -5 25 -5 0 -13 127
-13 215 0 98 10 247 19 261 2 3 6 19 8 35 10 51 14 67 36 139 24 80 24 80 79
199 23 49 55 108 71 133 17 24 30 47 30 51 0 4 14 22 30 41 17 18 30 37 30 41
0 11 208 221 248 251 19 13 40 30 47 37 8 6 18 12 24 12 5 0 15 8 20 18 6 9
11 13 11 9 0 -4 15 3 33 16 67 52 265 140 372 166 28 7 59 17 71 23 11 5 24 8
30 7 5 -1 11 0 14 1 6 2 35 6 115 15 33 4 61 8 63 9 4 5 256 -3 302 -8z"/>
</g>
</svg>
